# xmcd
#
# Track frame offsets:
#	150
#	11913
#	24680
#	39805
#	52578
#	78345
#	95848
#	115123
#	128135
#	151643
#	164358
#	176765
#	206483
#	217873
#	237900
#	253888
#	264233
#	282085
#	301775
#	312998
#
# Disc length: 4339
#
# Revision: 2
# Processed by: cddbd v1.5.1PL0 Copyright (c) Steve Scherf et al.
# Submitted via: CDex 1.50
# Normalized: r0:DSETVAR1,TSWAP
#
DISCID=fd10f114
DTITLE=Various Artist - Azul - to Spend Happy Holidays
DYEAR=2003
DGENRE=Jazz
TTITLE0=Sergio Mendes and Brasil'66 - MAS QUE NADA
TTITLE1=Nara Leao - DESAFINADO
TTITLE2=Henri Saivador - DANS MON ILE
TTITLE3=Astrud Gilberto - THE GIRL FROM IPANEMA
TTITLE4=Clementine - JEREMIE
TTITLE5=Hajime Yoshizawa - I AM WITH YOU (radio edit)
TTITLE6=Ana Caram - AGUA DE BEBER
TTITLE7=Antonio Carlos Jobim - WAVE
TTITLE8=Swing Out Sister - MAMA DIDN'T RAISE NO FOOL
TTITLE9=Astrud Gilberto - HOW INSENSITIVE
TTITLE10=Claudine Longest - LOVE IS BLUE (L'AMOR EST BLUE)
TTITLE11=Joao Gilderto With Caetano and Gil - AQUARELA DO BRASIL
TTITLE12=The Walter Wanderley Trio - A MAN AND A WOMAN (UN HOMME ET UNE FEMME)
TTITLE13=Quincy Jones - SE E TARDE ME PERDOA (FORGIVE ME IF I'M LATE)
TTITLE14=Dusty Springfield - THE LOOK OF LOVE
TTITLE15=The Style Council - ALL GONE AWAY
TTITLE16=Toninho Horta - MOONSTONE
TTITLE17=Lisa Ono - LITORAL DE SOL
TTITLE18=Marcos Valle - SO NICE (SUMMER SAMBA)
TTITLE19=Astrud Gilberto - BEACH SAMBA
EXTD=YEAR: 2003
EXTT0=
EXTT1=
EXTT2=
EXTT3=
EXTT4=
EXTT5=
EXTT6=
EXTT7=
EXTT8=
EXTT9=
EXTT10=
EXTT11=
EXTT12=
EXTT13=
EXTT14=
EXTT15=
EXTT16=
EXTT17=
EXTT18=
EXTT19=
PLAYORDER=
